{"title":"The Usual Suspects [1995] BRRip XviD - CODY","uid":7230823,"size":850078393,"categoryP":"video","categoryS":"movies","magnet":"?xt=urn:btih:a2dce6cd1d52fd9736d6f8c2c6c8ade84ae8a4e0&amp;dn=The+Usual+Suspects+%5B1995%5D+BRRip+XviD+-+CODY&amp;tr=udp%3A%2F%2Ftracker.openbittorrent.com%3A80&amp;tr=udp%3A%2F%2Fopen.demonii.com%3A1337&amp;tr=udp%3A%2F%2Ftracker.coppersurfer.tk%3A6969&amp;tr=udp%3A%2F%2Fexodus.desync.com%3A6969","seeders":1,"leechers":0,"uploader":"CODYBOSS1969","files":5,"time":1335830929,"description":"General\nComplete name                            : The Usual Suspects [1995] BRRip XviD - CODY.avi\nFormat                                   : AVI\nFormat/Info                              : Audio Video Interleave\nFormat profile                           : OpenDML\nFormat settings                          : rec\nFile size                                : 810 MiB\nDuration                                 : 1h 46mn\nOverall bit rate mode                    : Variable\nOverall bit rate                         : 1 068 Kbps\nWriting application                      : AVI-Mux GUI 1.17.8.3, Feb 16 201019:42:50\n\nVideo\nID                                       : 0\nFormat                                   : MPEG-4 Visual\nFormat profile                           : Advanced Simple@L5\nFormat settings, BVOP                    : 4\nFormat settings, QPel                    : No\nFormat settings, GMC                     : No warppoints\nFormat settings, Matrix                  : Default (H.263)\nCodec ID                                 : XVID\nCodec ID/Hint                            : XviD\nDuration                                 : 1h 46mn\nBit rate                                 : 931 Kbps\nWidth                                    : 720 pixels\nHeight                                   : 304 pixels\nDisplay aspect ratio                     : 2.35:1\nFrame rate                               : 23.976 fps\nColor space                              : YUV\nChroma subsampling                       : 4:2:0\nBit depth                                : 8 bits\nScan type                                : Progressive\nCompression mode                         : Lossy\nBits/(Pixel*Frame)                       : 0.177\nStream size                              : 707 MiB (87%)\nWriting library                          : XviD 1.2.1 (UTC 2008-12-04)\n\nAudio\nID                                       : 1\nFormat                                   : MPEG Audio\nFormat version                           : Version 1\nFormat profile                           : Layer 3\nCodec ID                                 : 55\nCodec ID/Hint                            : MP3\nDuration                                 : 1h 46mn\nBit rate mode                            : Variable\nBit rate                                 : 128 Kbps\nChannel(s)                               : 2 channels\nSampling rate                            : 48.0 KHz\nCompression mode                         : Lossy\nStream size                              : 97.1 MiB (12%)\nAlignment                                : Aligned on interleaves\nInterleave, duration                     : 24 ms (0.58 video frame)\nInterleave, preload duration             : 174 ms\nTitle                                    : The Usual Suspects [1995] BRRip XviD - CODY\nWriting library                          : L3.99r\nEncoding settings                        : -m s -V 4 -q 2 -lowpass 17 -b 128\n\n\n\n\nIMDB link:                                &lt;a href=&quot; http://www.imdb.com/title/tt0114814/&quot; rel=&quot;nofollow&quot; target=&quot;_NEW&quot;&gt; http://www.imdb.com/title/tt0114814/&lt;/a&gt;\n\n\n\n\nSubtittles included                      : Romanian\n\n\n\n\nPlease seed at least 1,5:1 . This way this torrent has a chance to survive !\n\n\n\n\nThanks . Enjoy !!\n","torrent":{"xt":"urn:btih:a2dce6cd1d52fd9736d6f8c2c6c8ade84ae8a4e0","amp;dn":"The+Usual+Suspects+%5B1995%5D+BRRip+XviD+-+CODY","amp;tr":["udp%3A%2F%2Ftracker.openbittorrent.com%3A80","udp%3A%2F%2Fopen.demonii.com%3A1337","udp%3A%2F%2Ftracker.coppersurfer.tk%3A6969","udp%3A%2F%2Fexodus.desync.com%3A6969"],"infoHash":"a2dce6cd1d52fd9736d6f8c2c6c8ade84ae8a4e0","infoHashBuffer":{"type":"Buffer","data":[162,220,230,205,29,82,253,151,54,214,248,194,198,200,173,232,74,232,164,224]},"announce":[],"urlList":[]}}